PathFileType	4	(X/Y/Z)	16_2_58_p1_0-565_filt_butterworth.trc
DataRate	CameraRate	NumFrames	NumMarkers	Units	OrigDataRate	OrigDataStartFrame	OrigNumFrames
59.0	59.0	6	27	m	59.0	353	565
Frame#	Time	RHip			RKnee			RAnkle			RBigToe			RSmallToe			RHeel			LHip			LKnee			LAnkle			LBigToe			LSmallToe			LHeel			Neck			Head			Nose			RShoulder			RElbow			RWrist			RThumb			RIndex			RPinky			LShoulder			LElbow			LWrist			LThumb			LIndex			LPinky			
		X1	Y1	Z1	X2	Y2	Z2	X3	Y3	Z3	X4	Y4	Z4	X5	Y5	Z5	X6	Y6	Z6	X7	Y7	Z7	X8	Y8	Z8	X9	Y9	Z9	X10	Y10	Z10	X11	Y11	Z11	X12	Y12	Z12	X13	Y13	Z13	X14	Y14	Z14	X15	Y15	Z15	X16	Y16	Z16	X17	Y17	Z17	X18	Y18	Z18	X19	Y19	Z19	X20	Y20	Z20	X21	Y21	Z21	X22	Y22	Z22	X23	Y23	Z23	X24	Y24	Z24	X25	Y25	Z25	X26	Y26	Z26	X27	Y27	Z27	
353	5.983050847457627	0.2859338402268154	0.5051463632923344	0.49325082068073484	0.2824303119844358	0.6263318841992569	0.9487346638297137	0.23240330130705047	0.7001710121815032	1.3680741918913828	0.24621789463861876	0.3926337306567783	1.3481384981815903	0.30849169369570556	0.46935952306932366	1.3704464259203482	0.21150555375375907	0.7455172528959749	1.4178311017811729	0.07047344391046832	0.48457959927143146	0.48434150769150547	0.05211303591607146	0.6130542116935093	0.9378808523719706	0.05307102706909261	0.6758191573855397	1.345766203098128	0.03772839773114256	0.4313926960317989	1.3523226551737093	-0.022078535389456724	0.5311707457808028	1.3838346139263715	0.08624539097445641	0.7417635668034037	1.420820752354494	0.18597441109239962	0.4391187902997718	-0.1067367891812959	0.2614842787810593	0.2514797070707863	-0.318388050249987	0.20143746752948932	0.2886056638986073	-0.18078129716747546	0.34320474709797233	0.5062555527387929	-0.06182955092263251	0.44121599643311804	0.37796056951963414	0.16623932269552333	0.26747134596192507	0.10788216519103606	0.1548718544025626	0.18343451685598547	0.06881735628827006	0.167930491442013	0.17899132111464472	0.051516129015263576	0.18268759804305704	0.19274728128496957	0.07676068360432282	0.20882142884180957	0.015433223094774481	0.4717444020884213	-0.08091739307154559	-0.10520591232257591	0.24417741529515788	0.0770862864027033	-0.023607663933125113	0.22349571981795957	-0.12548549285309812	0.02616605170424806	0.30220430179808955	-0.20688875927415942	0.02255882659561411	0.2962559913035351	-0.2374653182250744	0.003936640032538875	0.2720001448958588	-0.23048193558948346
354	6.0	0.2860641055857056	0.5044464170493055	0.4915884023670797	0.2832091486309679	0.6265555115532094	0.9503273148428175	0.2313251279005919	0.7050358512596901	1.3702853767019731	0.2452915666109698	0.39202370567877465	1.3484499212213514	0.30846290097249185	0.4675845780298259	1.3703545385080194	0.21152460256383054	0.7457638011840336	1.4179707800235057	0.07127815323367442	0.48404230246173435	0.4842131927521599	0.05214990152706315	0.6130306792863488	0.9378568614214194	0.053253284221181946	0.6757244768857648	1.3449499408665064	0.03765354342220988	0.43157402919700066	1.3524041749175053	-0.02210117084347665	0.531338776037986	1.38390320664217	0.08608329149522392	0.741620000609817	1.4206516412878063	0.1863776565973849	0.43758491087159457	-0.10687587352994735	0.26368637568574754	0.24628773055739644	-0.31849152105671336	0.2039771304781517	0.28608937429910447	-0.17994946075304158	0.34322114048461205	0.5060255711006764	-0.06084747393365419	0.4429460631229942	0.38333073903876735	0.1702187366685148	0.27067668252100113	0.11074020456313688	0.15675632332804643	0.18668997131474385	0.06897450272798711	0.16892812165843787	0.1807733662056305	0.05205363736673304	0.18222699256884242	0.19441703341783817	0.07971386573572874	0.20979944101325806	0.01474496886631091	0.46841030222656554	-0.08069193549955778	-0.10669469379700085	0.23617364741036762	0.07950832255376619	-0.021236207669104088	0.2334265069789961	-0.1241944608510373	0.027627291700923463	0.30692172920851196	-0.19928232170081903	0.02356454492647956	0.307467283541543	-0.22901339845571667	0.005819871007932749	0.28931895174415945	-0.22279988478459112
355	6.016949152542373	0.2864917720260817	0.5029602651683371	0.49175121018032275	0.28329389478035333	0.6268483822158804	0.9529375679471274	0.2309061533739996	0.7068340221224421	1.37110739480773	0.24422554250613343	0.391277284718844	1.3484174879747268	0.306808221089248	0.4654709448316847	1.3705579953699538	0.211492978938513	0.7459134057895886	1.4178264420007007	0.0734661037709648	0.4811985876588844	0.48459078619031404	0.05216833146645598	0.613016903510921	0.9378641505859202	0.05310617885859322	0.6757737348254874	1.3447548758455647	0.03746191531170486	0.43179732196134984	1.3524767715123431	-0.022136812250741787	0.531550030303035	1.383958131967743	0.0849628763448038	0.7409986167019145	1.4203043236156594	0.18637282987611717	0.43737762593049107	-0.10700124868286584	0.26674183082070196	0.24619318843653898	-0.31959744099724285	0.20642000785809056	0.282585545952125	-0.17895082371446133	0.34325739951055195	0.5057842946857128	-0.06009231481474214	0.44458358515625984	0.38656189690858417	0.17373761543248073	0.27374534787363425	0.11162828957298859	0.15996838968683808	0.1880935085302713	0.07060281312674614	0.1694109870832332	0.18221175533376754	0.05271235928743227	0.18187328731021485	0.19639119533506638	0.08330404558660363	0.2112476003037626	0.014900748041981033	0.46577900534069366	-0.07993189377875526	-0.10720480374847703	0.22951710105829534	0.08415142404162185	-0.018102572692525895	0.24112388760761067	-0.12123147748509738	0.029494836890149034	0.3085841723438222	-0.18870537015211472	0.024719973590257203	0.31347639405858496	-0.21866283614387913	0.008438918204670767	0.29453294771682625	-0.210854246332636
356	6.033898305084746	0.28707280344302005	0.5010322086106651	0.49354002675569203	0.2829090746933994	0.6270712893120016	0.9556343557128473	0.2308909498196164	0.7067850055773209	1.3710767269091442	0.24280837578612913	0.39027411236260406	1.3481864726742712	0.3048231238018221	0.4644376644126109	1.3708681051695226	0.21125328500481036	0.7458103431202795	1.4172535124354404	0.07617943100675859	0.4769483162251025	0.48516650634891556	0.052129328921703855	0.612979710809559	0.937893027290909	0.05273594109636576	0.6759372772367696	1.3448209196920011	0.03723190954045891	0.43188635928508823	1.352451350041965	-0.022168481070240238	0.5316978784858385	1.3839722590281016	0.08305977154492512	0.7399963156246664	1.4199245052533271	0.18621934762602926	0.43758036976143566	-0.10703816417617389	0.2689745155421515	0.248287278362818	-0.3211436211165726	0.20783565120239608	0.2798237090468864	-0.17813779415672157	0.34332599061619057	0.5056539186546835	-0.059146467383872484	0.44551577695332534	0.38782529949967487	0.17636770421218279	0.2761917896779384	0.11158936169291037	0.1638182297342315	0.18822365939029376	0.07285082445671817	0.16955243378297485	0.18354669877712096	0.053386570054555715	0.1817689667387754	0.1979665829615112	0.08618779532864687	0.21267624559909537	0.015998449962186082	0.4623745456662675	-0.07881146191845899	-0.1066279292750023	0.22626843589185247	0.09126749610279436	-0.015103155522469226	0.2432462814564451	-0.11649962090347128	0.030346258955298855	0.3106302208176244	-0.1775652642542236	0.02569853247485805	0.3159550441072737	-0.2085790032603093	0.010608315116773414	0.29216132021924157	-0.1981607529252146
357	6.050847457627119	0.2873570322832742	0.5003984310027124	0.49561655191721127	0.2825916783604675	0.6271488772126158	0.957333569385812	0.23096736428055978	0.7063410868623579	1.3708626165386453	0.2419020401102588	0.3897079457040846	1.3479756607542401	0.30387658905354353	0.46429301720450955	1.3709834605215308	0.2107679290871436	0.7453337154990248	1.4163326738469828	0.07762717738898202	0.4733972363203122	0.4860967414833375	0.052035031221906725	0.6129111576735587	0.9379202214389543	0.05235113801018197	0.6761052560710898	1.3448743149661344	0.037307300797342645	0.43178666039700225	1.3522565255450782	-0.02218105202403289	0.5317629601853651	1.3839694380057477	0.08120410987156043	0.7388687927158138	1.4194365990709095	0.18625533218422768	0.43773012627597196	-0.1069735624480658	0.2697355080710299	0.24992169031795633	-0.3221838710216464	0.20820710029111755	0.27871502308790663	-0.17833041496808186	0.3434126504289667	0.5056199014873592	-0.057970202684591826	0.4458722936435907	0.388000386745731	0.177843617336396	0.27800324093818696	0.11144497509754817	0.16744611375187718	0.18834932912489089	0.07461653367453022	0.17038342952208463	0.1844971020412485	0.05384778429716398	0.18211834429036175	0.19890429879846214	0.08831391186483084	0.213926915711879	0.01751614646405284	0.4582119895741378	-0.07783634566360431	-0.10533694078807246	0.22751414588361157	0.10056370494770332	-0.013621427681342894	0.23983020522413384	-0.1106973646018014	0.030056461615550974	0.31102950633795645	-0.1682076739873064	0.02670282734908436	0.3117215559248406	-0.20063989803000576	0.011448933075692273	0.2838889470178476	-0.1884599306972156
358	6.067796610169491	0.2870779699780265	0.5020695517472309	0.4970130993052105	0.2825059376010846	0.6271506081686263	0.9579242567940587	0.23100082068202027	0.706034950069673	1.370728968028984	0.24322178319176763	0.3914556040932592	1.3480582340447431	0.30461984937112047	0.46431215889687827	1.3707276575744414	0.21026203719467748	0.7444726205175987	1.415080437032683	0.07732732168048476	0.4715564239930447	0.4875899978999006	0.05203226344683829	0.6128843101745169	0.9379316144808487	0.05206545007682714	0.6760683420128792	1.3447995812319242	0.03834008311030391	0.4316791075658693	1.3519921017885173	-0.02216016163924265	0.5317901487155752	1.383988521792547	0.07978744761946086	0.7367383338553504	1.4181629340917896	0.18698162544074226	0.437716381284426	-0.10689151427671027	0.26964089402618513	0.25091126978940703	-0.3223525660888158	0.20806780568698025	0.2787004333731549	-0.1795921215754351	0.34348951736475264	0.5055947219574289	-0.057006530380593494	0.44600689321222187	0.387913569749076	0.17856892947879024	0.2794282836024947	0.11133836354665028	0.1702837085437643	0.188930923495967	0.07541422241472946	0.1722013841385797	0.1849114692625798	0.054143901096739624	0.18308574525219007	0.1992732639677302	0.09070746535556173	0.21492784989593539	0.018651569002513264	0.4550297360961536	-0.07733016141874376	-0.10369804371946534	0.2329159029323492	0.11043607338865068	-0.014368402712135802	0.2335219159155318	-0.1043925372164549	0.02959164077208192	0.30629699744250155	-0.1617924308705806	0.02765222338282913	0.29963901920819114	-0.19549678991145197	0.010223929028124655	0.26781396973264343	-0.18289611488914378
